# xmcd
#
# Track frame offsets: 
#        150
#        20832
#        45175
#        60757
#        76632
#        94842
#        117307
#        138340
#        156337
#        178627
#
# Disc length: 2618 seconds
#
# Revision: 1
# Processed by: cddbd v1.5.2PL0 Copyright (c) Steve Scherf et al.
# Submitted via: ExactAudioCopyFreeDBPlugin 1.0
#
DISCID=710a380a
DTITLE=瑞鸣唱片 - 小曲儿
DYEAR=1900
DGENRE=Acid Punk
TTITLE0=东北二人转：大西厢
TTITLE1=京韵大鼓：剑阁闻铃
TTITLE2=四川清音：布谷鸟儿咕咕叫
TTITLE3=京东大鼓：送女上学
TTITLE4=上海评弹：情探
TTITLE5=西河大鼓：玲珑塔
TTITLE6=山东琴书：老少换
TTITLE7=广东粤曲：分飞燕
TTITLE8=天津时调：翻江倒海
TTITLE9=河南坠子：穆桂英指路
EXTD=
EXTT0=
EXTT1=
EXTT2=
EXTT3=
EXTT4=
EXTT5=
EXTT6=
EXTT7=
EXTT8=
EXTT9=
PLAYORDER=
